<svg id="Layer_1" data-name="Layer 1" xmlns="http://www.w3.org/2000/svg" viewBox="0 0 500 500"><defs><style>.cls-1{fill:#fff;}.cls-2{fill:none;stroke:#000;stroke-linecap:round;stroke-linejoin:round;stroke-width:20px;}.cls-3{fill:#f5903d;}.cls-4{opacity:0.3;}.cls-5{fill:#faae3b;}</style></defs><title>cocktail</title><ellipse class="cls-1" cx="286.32" cy="94.27" rx="165.75" ry="26.57"/><path class="cls-1" d="M286.32,120.83c-71.12,0-131.76-7.18-155.28-17.26L285.12,240.44l152-135.16C411,114.45,353.33,120.83,286.32,120.83Z"/><ellipse class="cls-1" cx="286.32" cy="466.48" rx="89.56" ry="22.42"/><line class="cls-2" x1="285.12" y1="240.44" x2="285.12" y2="444.06"/><polygon class="cls-3" points="285.12 240.44 387.89 149.07 182.26 149.07 285.12 240.44"/><g class="cls-4"><path d="M367.52,117.42,257.13,215.58l28,24.86,152-135.16C422.52,110.41,398,114.67,367.52,117.42Z"/></g><ellipse class="cls-2" cx="286.32" cy="94.27" rx="165.75" ry="26.57"/><path class="cls-2" d="M286.32,120.83c-71.12,0-131.76-7.18-155.28-17.26L285.12,240.44l152-135.16C411,114.45,353.33,120.83,286.32,120.83Z"/><ellipse class="cls-2" cx="286.32" cy="466.48" rx="89.56" ry="22.42"/><path class="cls-5" d="M112,12.59a81.2,81.2,0,0,0-62.22,96.5L208.49,74.81A81.2,81.2,0,0,0,112,12.59Z"/><line class="cls-2" x1="129.13" y1="91.95" x2="67.16" y2="39.56"/><line class="cls-2" x1="129.13" y1="91.95" x2="163.97" y2="18.65"/><path class="cls-2" d="M112,12.59a81.2,81.2,0,0,0-62.22,96.5L208.49,74.81A81.2,81.2,0,0,0,112,12.59Z"/></svg>